<svg width="2424" height="2057" viewBox="0 0 2424 2057" fill="none" xmlns="http://www.w3.org/2000/svg">
<g clip-path="url(#clip0_359_482)">
<path d="M1925.57 227.613C1922.54 225.227 1919.51 222.964 1916.48 220.658C1829.2 154.48 1735.65 100.718 1637.76 60.4827L1615.06 431.689H1471.18V6.29705C1462.12 4.07704 1453 1.98635 1443.87 0.00341797V431.689H1272.87C1178.74 431.689 1088.46 387.356 1021.9 308.443C955.342 229.531 917.948 122.502 917.948 10.9024C908.785 13.2481 899.692 15.7591 890.599 18.4461V431.689H751.331L729.709 77.722C629.117 123.46 533.619 183.607 445.341 256.825C443.826 258.061 442.287 259.339 440.796 260.568C433.127 266.944 425.561 273.446 418.028 280.031V1696.19H828.481L821.227 1577.07L781.316 923.081H1585.04L1545.13 1577.07L1537.88 1696.19H1943.78V241.931C1937.75 237.077 1931.67 232.304 1925.57 227.613ZM890.602 815.077H774.723L753.31 464.113H890.602V815.077ZM1443.87 815.077H1249.24V808.122C1249.24 804.779 1248.68 801.469 1247.6 798.382C1246.52 795.294 1244.94 792.489 1242.94 790.128C1240.95 787.766 1238.58 785.894 1235.97 784.619C1233.37 783.344 1230.58 782.69 1227.76 782.696H1143.15C1140.33 782.694 1137.54 783.351 1134.94 784.628C1132.34 785.906 1129.97 787.778 1127.98 790.14C1125.99 792.501 1124.41 795.305 1123.33 798.39C1122.25 801.476 1121.7 804.783 1121.7 808.122V815.077H917.948V464.113H1443.87V815.077ZM1471.18 815.077V464.113H1613.08L1591.67 815.077H1471.18Z" fill="#E6E6E6"/>
<path d="M0 1786.87C26.5256 1828.9 55.4717 1868.7 86.6307 1905.99L2337.37 1910.1C2368.53 1872.81 2397.48 1833.01 2424 1790.99L0 1786.87Z" fill="#F2F2F2"/>
<path d="M1533.42 1405.47V1758.1C1533.42 1762.59 1534.93 1766.9 1537.61 1770.08C1540.29 1773.25 1543.92 1775.04 1547.71 1775.04H1988.46C1992.25 1775.04 1995.89 1773.25 1998.57 1770.08C2001.25 1766.9 2002.75 1762.59 2002.76 1758.1V1405.47C2002.75 1400.98 2001.24 1396.68 1998.56 1393.5C1995.88 1390.33 1992.25 1388.54 1988.46 1388.54H1547.71C1543.92 1388.54 1540.29 1390.33 1537.61 1393.5C1534.93 1396.68 1533.42 1400.98 1533.42 1405.47Z" fill="#3F3D56"/>
<path d="M1543.76 1409.85V1753.74C1543.76 1756.14 1544.57 1758.44 1546 1760.14C1547.43 1761.83 1549.37 1762.79 1551.4 1762.79H1984.81C1986.83 1762.79 1988.77 1761.83 1990.2 1760.14C1991.64 1758.44 1992.44 1756.14 1992.45 1753.74V1409.85C1992.45 1407.45 1991.64 1405.14 1990.21 1403.44C1988.78 1401.74 1986.84 1400.78 1984.81 1400.77H1551.4C1549.37 1400.78 1547.43 1401.74 1545.99 1403.44C1544.56 1405.14 1543.76 1407.45 1543.76 1409.85Z" fill="white"/>
<path d="M1524.2 1826.86C1525.01 1828.07 1526.03 1829.04 1527.2 1829.7C1528.37 1830.37 1529.65 1830.71 1530.94 1830.71H2002.9C2004.19 1830.7 2005.46 1830.36 2006.63 1829.7C2007.79 1829.04 2008.82 1828.08 2009.63 1826.89C2010.44 1825.71 2011.02 1824.32 2011.33 1822.83C2011.63 1821.34 2011.65 1819.8 2011.38 1818.3L2004.06 1777.04C2003.75 1775.36 2003.1 1773.79 2002.15 1772.49C2001.21 1771.18 2000 1770.17 1998.65 1769.56C1997.67 1769.1 1996.62 1768.87 1995.57 1768.87H1538.24C1537.19 1768.87 1536.14 1769.1 1535.16 1769.56C1533.8 1770.17 1532.6 1771.18 1531.65 1772.49C1530.71 1773.79 1530.05 1775.36 1529.75 1777.04L1522.42 1818.3C1522.16 1819.79 1522.19 1821.34 1522.49 1822.83C1522.8 1824.31 1523.38 1825.7 1524.2 1826.88L1524.2 1826.86Z" fill="#2F2E41"/>
<path d="M1543.08 1786.62H1554.66C1555.48 1786.62 1556.14 1785.84 1556.14 1784.87V1778.04C1556.14 1777.07 1555.48 1776.29 1554.66 1776.29H1543.08C1542.27 1776.29 1541.6 1777.07 1541.6 1778.04V1784.87C1541.6 1785.84 1542.27 1786.62 1543.08 1786.62Z" fill="#3F3D56"/>
<path d="M1543.43 1803.86H1555C1555.82 1803.86 1556.48 1803.07 1556.48 1802.1V1795.27C1556.48 1794.3 1555.82 1793.52 1555 1793.52H1543.43C1542.61 1793.52 1541.95 1794.3 1541.95 1795.27V1802.1C1541.95 1803.07 1542.61 1803.86 1543.43 1803.86Z" fill="#3F3D56"/>
<path d="M1851.32 1824.54H1738.42C1737.97 1824.54 1737.54 1824.33 1737.23 1823.95C1736.91 1823.58 1736.73 1823.07 1736.73 1822.53V1816.21C1736.73 1815.68 1736.91 1815.17 1737.23 1814.79C1737.54 1814.41 1737.97 1814.2 1738.42 1814.2H1851.32C1851.77 1814.2 1852.2 1814.41 1852.52 1814.79C1852.84 1815.17 1853.02 1815.68 1853.02 1816.21V1822.53C1853.02 1823.07 1852.84 1823.58 1852.52 1823.95C1852.2 1824.33 1851.77 1824.54 1851.32 1824.54Z" fill="#3F3D56"/>
<path d="M1619.5 1476.01H1608.25C1605.64 1476.01 1603.52 1478.52 1603.52 1481.62V1483.25C1603.52 1486.35 1605.64 1488.86 1608.25 1488.86H1619.5C1622.11 1488.86 1624.23 1486.35 1624.23 1483.25V1481.62C1624.23 1478.52 1622.11 1476.01 1619.5 1476.01Z" fill="white"/>
<path d="M1732.37 1476.01H1721.12C1718.51 1476.01 1716.39 1478.52 1716.39 1481.62V1483.25C1716.39 1486.35 1718.51 1488.86 1721.12 1488.86H1732.37C1734.98 1488.86 1737.1 1486.35 1737.1 1483.25V1481.62C1737.1 1478.52 1734.98 1476.01 1732.37 1476.01Z" fill="white"/>
<path d="M1764.35 1476.01H1753.1C1750.49 1476.01 1748.37 1478.52 1748.37 1481.62V1483.25C1748.37 1486.35 1750.49 1488.86 1753.1 1488.86H1764.35C1766.96 1488.86 1769.08 1486.35 1769.08 1483.25V1481.62C1769.08 1478.52 1766.96 1476.01 1764.35 1476.01Z" fill="white"/>
<path d="M1701.67 1474.94H1638.95C1636.34 1474.94 1634.22 1477.45 1634.22 1480.55V1482.18C1634.22 1485.27 1636.34 1487.78 1638.95 1487.78H1701.67C1704.28 1487.78 1706.4 1485.27 1706.4 1482.18V1480.55C1706.4 1477.45 1704.28 1474.94 1701.67 1474.94Z" fill="white"/>
<path d="M1852.16 1474.94H1789.45C1786.84 1474.94 1784.72 1477.45 1784.72 1480.55V1482.18C1784.72 1485.27 1786.84 1487.78 1789.45 1487.78H1852.16C1854.77 1487.78 1856.89 1485.27 1856.89 1482.18V1480.55C1856.89 1477.45 1854.77 1474.94 1852.16 1474.94Z" fill="white"/>
<path d="M1649.6 1505H1638.35C1635.74 1505 1633.62 1507.51 1633.62 1510.61V1512.24C1633.62 1515.34 1635.74 1517.85 1638.35 1517.85H1649.6C1652.21 1517.85 1654.33 1515.34 1654.33 1512.24V1510.61C1654.33 1507.51 1652.21 1505 1649.6 1505Z" fill="white"/>
<path d="M1762.47 1505H1751.22C1748.61 1505 1746.49 1507.51 1746.49 1510.61V1512.24C1746.49 1515.34 1748.61 1517.85 1751.22 1517.85H1762.47C1765.08 1517.85 1767.2 1515.34 1767.2 1512.24V1510.61C1767.2 1507.51 1765.08 1505 1762.47 1505Z" fill="white"/>
<path d="M1794.45 1505H1783.2C1780.59 1505 1778.47 1507.51 1778.47 1510.61V1512.24C1778.47 1515.34 1780.59 1517.85 1783.2 1517.85H1794.45C1797.06 1517.85 1799.18 1515.34 1799.18 1512.24V1510.61C1799.18 1507.51 1797.06 1505 1794.45 1505Z" fill="white"/>
<path d="M1731.77 1503.93H1669.05C1666.44 1503.93 1664.32 1506.44 1664.32 1509.54V1511.17C1664.32 1514.27 1666.44 1516.78 1669.05 1516.78H1731.77C1734.38 1516.78 1736.5 1514.27 1736.5 1511.17V1509.54C1736.5 1506.44 1734.38 1503.93 1731.77 1503.93Z" fill="white"/>
<path d="M1882.26 1503.93H1819.55C1816.93 1503.93 1814.82 1506.44 1814.82 1509.54V1511.17C1814.82 1514.27 1816.93 1516.78 1819.55 1516.78H1882.26C1884.87 1516.78 1886.99 1514.27 1886.99 1511.17V1509.54C1886.99 1506.44 1884.87 1503.93 1882.26 1503.93Z" fill="white"/>
<path d="M1679.7 1534H1668.45C1665.84 1534 1663.72 1536.51 1663.72 1539.61V1541.24C1663.72 1544.33 1665.84 1546.85 1668.45 1546.85H1679.7C1682.31 1546.85 1684.43 1544.33 1684.43 1541.24V1539.61C1684.43 1536.51 1682.31 1534 1679.7 1534Z" fill="white"/>
<path d="M1792.56 1534H1781.32C1778.71 1534 1776.59 1536.51 1776.59 1539.61V1541.24C1776.59 1544.33 1778.71 1546.85 1781.32 1546.85H1792.56C1795.18 1546.85 1797.29 1544.33 1797.29 1541.24V1539.61C1797.29 1536.51 1795.18 1534 1792.56 1534Z" fill="white"/>
<path d="M1824.54 1534H1813.3C1810.69 1534 1808.57 1536.51 1808.57 1539.61V1541.24C1808.57 1544.33 1810.69 1546.85 1813.3 1546.85H1824.54C1827.16 1546.85 1829.27 1544.33 1829.27 1541.24V1539.61C1829.27 1536.51 1827.16 1534 1824.54 1534Z" fill="white"/>
<path d="M1761.86 1532.93H1699.15C1696.54 1532.93 1694.42 1535.44 1694.42 1538.53V1540.16C1694.42 1543.26 1696.54 1545.77 1699.15 1545.77H1761.86C1764.47 1545.77 1766.59 1543.26 1766.59 1540.16V1538.53C1766.59 1535.44 1764.47 1532.93 1761.86 1532.93Z" fill="white"/>
<path d="M1912.36 1532.93H1849.65C1847.03 1532.93 1844.92 1535.44 1844.92 1538.53V1540.16C1844.92 1543.26 1847.03 1545.77 1849.65 1545.77H1912.36C1914.97 1545.77 1917.09 1543.26 1917.09 1540.16V1538.53C1917.09 1535.44 1914.97 1532.93 1912.36 1532.93Z" fill="white"/>
<path d="M1709.79 1562.99H1698.55C1695.94 1562.99 1693.82 1565.5 1693.82 1568.6V1570.23C1693.82 1573.32 1695.94 1575.83 1698.55 1575.83H1709.79C1712.4 1575.83 1714.52 1573.32 1714.52 1570.23V1568.6C1714.52 1565.5 1712.4 1562.99 1709.79 1562.99Z" fill="white"/>
<path d="M1822.66 1562.99H1811.42C1808.81 1562.99 1806.69 1565.5 1806.69 1568.6V1570.23C1806.69 1573.32 1808.81 1575.83 1811.42 1575.83H1822.66C1825.28 1575.83 1827.39 1573.32 1827.39 1570.23V1568.6C1827.39 1565.5 1825.28 1562.99 1822.66 1562.99Z" fill="white"/>
<path d="M1854.64 1562.99H1843.4C1840.79 1562.99 1838.67 1565.5 1838.67 1568.6V1570.23C1838.67 1573.32 1840.79 1575.83 1843.4 1575.83H1854.64C1857.25 1575.83 1859.37 1573.32 1859.37 1570.23V1568.6C1859.37 1565.5 1857.25 1562.99 1854.64 1562.99Z" fill="white"/>
<path d="M1791.96 1561.92H1729.25C1726.64 1561.92 1724.52 1564.43 1724.52 1567.53V1569.16C1724.52 1572.25 1726.64 1574.76 1729.25 1574.76H1791.96C1794.58 1574.76 1796.69 1572.25 1796.69 1569.16V1567.53C1796.69 1564.43 1794.58 1561.92 1791.96 1561.92Z" fill="white"/>
<path d="M1732.37 1678.28H1721.12C1718.51 1678.28 1716.39 1680.79 1716.39 1683.89V1685.52C1716.39 1688.61 1718.51 1691.12 1721.12 1691.12H1732.37C1734.98 1691.12 1737.1 1688.61 1737.1 1685.52V1683.89C1737.1 1680.79 1734.98 1678.28 1732.37 1678.28Z" fill="white"/>
<path d="M1764.35 1678.28H1753.1C1750.49 1678.28 1748.37 1680.79 1748.37 1683.89V1685.52C1748.37 1688.61 1750.49 1691.12 1753.1 1691.12H1764.35C1766.96 1691.12 1769.08 1688.61 1769.08 1685.52V1683.89C1769.08 1680.79 1766.96 1678.28 1764.35 1678.28Z" fill="white"/>
<path d="M1852.16 1679.35H1789.45C1786.84 1679.35 1784.72 1681.86 1784.72 1684.96V1686.59C1784.72 1689.68 1786.84 1692.2 1789.45 1692.2H1852.16C1854.77 1692.2 1856.89 1689.68 1856.89 1686.59V1684.96C1856.89 1681.86 1854.77 1679.35 1852.16 1679.35Z" fill="white"/>
<path d="M1619.5 1678.28H1608.25C1605.64 1678.28 1603.52 1680.79 1603.52 1683.89V1685.52C1603.52 1688.61 1605.64 1691.12 1608.25 1691.12H1619.5C1622.11 1691.12 1624.23 1688.61 1624.23 1685.52V1683.89C1624.23 1680.79 1622.11 1678.28 1619.5 1678.28Z" fill="white"/>
<path d="M1701.67 1679.35H1638.95C1636.34 1679.35 1634.22 1681.86 1634.22 1684.96V1686.59C1634.22 1689.68 1636.34 1692.2 1638.95 1692.2H1701.67C1704.28 1692.2 1706.4 1689.68 1706.4 1686.59V1684.96C1706.4 1681.86 1704.28 1679.35 1701.67 1679.35Z" fill="white"/>
<path d="M1649.6 1649.29H1638.35C1635.74 1649.29 1633.62 1651.8 1633.62 1654.89V1656.52C1633.62 1659.62 1635.74 1662.13 1638.35 1662.13H1649.6C1652.21 1662.13 1654.33 1659.62 1654.33 1656.52V1654.89C1654.33 1651.8 1652.21 1649.29 1649.6 1649.29Z" fill="white"/>
<path d="M1762.47 1649.29H1751.22C1748.61 1649.29 1746.49 1651.8 1746.49 1654.89V1656.52C1746.49 1659.62 1748.61 1662.13 1751.22 1662.13H1762.47C1765.08 1662.13 1767.2 1659.62 1767.2 1656.52V1654.89C1767.2 1651.8 1765.08 1649.29 1762.47 1649.29Z" fill="white"/>
<path d="M1794.45 1649.29H1783.2C1780.59 1649.29 1778.47 1651.8 1778.47 1654.89V1656.52C1778.47 1659.62 1780.59 1662.13 1783.2 1662.13H1794.45C1797.06 1662.13 1799.18 1659.62 1799.18 1656.52V1654.89C1799.18 1651.8 1797.06 1649.29 1794.45 1649.29Z" fill="white"/>
<path d="M1731.77 1650.36H1669.05C1666.44 1650.36 1664.32 1652.87 1664.32 1655.96V1657.59C1664.32 1660.69 1666.44 1663.2 1669.05 1663.2H1731.77C1734.38 1663.2 1736.5 1660.69 1736.5 1657.59V1655.96C1736.5 1652.87 1734.38 1650.36 1731.77 1650.36Z" fill="white"/>
<path d="M1679.7 1620.29H1668.45C1665.84 1620.29 1663.72 1622.8 1663.72 1625.9V1627.53C1663.72 1630.63 1665.84 1633.14 1668.45 1633.14H1679.7C1682.31 1633.14 1684.43 1630.63 1684.43 1627.53V1625.9C1684.43 1622.8 1682.31 1620.29 1679.7 1620.29Z" fill="white"/>
<path d="M1792.56 1620.29H1781.32C1778.71 1620.29 1776.59 1622.8 1776.59 1625.9V1627.53C1776.59 1630.63 1778.71 1633.14 1781.32 1633.14H1792.56C1795.18 1633.14 1797.29 1630.63 1797.29 1627.53V1625.9C1797.29 1622.8 1795.18 1620.29 1792.56 1620.29Z" fill="white"/>
<path d="M1824.54 1620.29H1813.3C1810.69 1620.29 1808.57 1622.8 1808.57 1625.9V1627.53C1808.57 1630.63 1810.69 1633.14 1813.3 1633.14H1824.54C1827.16 1633.14 1829.27 1630.63 1829.27 1627.53V1625.9C1829.27 1622.8 1827.16 1620.29 1824.54 1620.29Z" fill="white"/>
<path d="M1761.86 1621.36H1699.15C1696.54 1621.36 1694.42 1623.87 1694.42 1626.97V1628.6C1694.42 1631.7 1696.54 1634.21 1699.15 1634.21H1761.86C1764.47 1634.21 1766.59 1631.7 1766.59 1628.6V1626.97C1766.59 1623.87 1764.47 1621.36 1761.86 1621.36Z" fill="white"/>
<path d="M1709.79 1591.3H1698.55C1695.94 1591.3 1693.82 1593.81 1693.82 1596.91V1598.54C1693.82 1601.63 1695.94 1604.15 1698.55 1604.15H1709.79C1712.4 1604.15 1714.52 1601.63 1714.52 1598.54V1596.91C1714.52 1593.81 1712.4 1591.3 1709.79 1591.3Z" fill="white"/>
<path d="M1822.66 1591.3H1811.42C1808.81 1591.3 1806.69 1593.81 1806.69 1596.91V1598.54C1806.69 1601.63 1808.81 1604.15 1811.42 1604.15H1822.66C1825.28 1604.15 1827.39 1601.63 1827.39 1598.54V1596.91C1827.39 1593.81 1825.28 1591.3 1822.66 1591.3Z" fill="white"/>
<path d="M1854.64 1591.3H1843.4C1840.79 1591.3 1838.67 1593.81 1838.67 1596.91V1598.54C1838.67 1601.63 1840.79 1604.15 1843.4 1604.15H1854.64C1857.25 1604.15 1859.37 1601.63 1859.37 1598.54V1596.91C1859.37 1593.81 1857.25 1591.3 1854.64 1591.3Z" fill="white"/>
<path d="M1791.96 1592.37H1729.25C1726.64 1592.37 1724.52 1594.88 1724.52 1597.98V1599.61C1724.52 1602.71 1726.64 1605.22 1729.25 1605.22H1791.96C1794.58 1605.22 1796.69 1602.71 1796.69 1599.61V1597.98C1796.69 1594.88 1794.58 1592.37 1791.96 1592.37Z" fill="white"/>
<path d="M479.298 1388.55V1810.53H728.652V1388.55C728.656 1385.52 727.84 1382.56 726.322 1380.12C724.804 1377.67 722.665 1375.87 720.219 1374.97C719.066 1374.52 717.858 1374.3 716.644 1374.32H491.339C489.76 1374.31 488.196 1374.68 486.736 1375.39C485.276 1376.11 483.948 1377.15 482.83 1378.48C481.712 1379.8 480.824 1381.37 480.218 1383.1C479.612 1384.83 479.299 1386.68 479.298 1388.55ZM576.621 1533.55C576.621 1525.18 579.426 1517.15 584.418 1511.23C589.41 1505.31 596.18 1501.99 603.24 1501.99C610.3 1501.99 617.07 1505.31 622.062 1511.23C627.054 1517.15 629.859 1525.18 629.859 1533.55V1582.51C629.859 1590.88 627.054 1598.91 622.062 1604.82C617.07 1610.74 610.3 1614.07 603.24 1614.07C596.18 1614.07 589.41 1610.74 584.418 1604.82C579.426 1598.91 576.621 1590.88 576.621 1582.51V1533.55Z" fill="#2F2E41"/>
<path d="M478.534 1797.04V1837.73C478.54 1839.84 479.246 1841.86 480.501 1843.35C481.755 1844.85 483.455 1845.69 485.234 1845.71H722.719C724.499 1845.7 726.203 1844.85 727.458 1843.36C728.713 1841.86 729.418 1839.84 729.418 1837.73V1797.04H478.534Z" fill="#3F3D56"/>
<path d="M87.0303 752.787V1523.26C87.0367 1533.08 90.3294 1542.49 96.1854 1549.44C102.041 1556.38 109.982 1560.28 118.264 1560.29H1081.32C1089.61 1560.28 1097.55 1556.38 1103.4 1549.44C1109.26 1542.49 1112.55 1533.08 1112.56 1523.26V752.787C1112.54 742.975 1109.24 733.572 1103.39 726.637C1097.53 719.702 1089.6 715.8 1081.32 715.787H118.264C109.987 715.799 102.053 719.7 96.1983 726.636C90.3439 733.571 87.0471 742.975 87.0303 752.787Z" fill="#3F3D56"/>
<path d="M109.622 762.374V1513.76C109.63 1519 111.391 1524.03 114.52 1527.74C117.649 1531.45 121.89 1533.54 126.314 1533.55H1073.3C1077.73 1533.54 1081.97 1531.45 1085.1 1527.74C1088.22 1524.03 1089.99 1519 1089.99 1513.76V762.374C1089.99 757.122 1088.24 752.084 1085.11 748.366C1081.98 744.647 1077.73 742.553 1073.3 742.542H126.314C121.884 742.553 117.638 744.647 114.509 748.366C111.38 752.084 109.622 757.122 109.622 762.374Z" fill="white"/>
<path d="M285.374 1842.96C286.338 1844.39 287.563 1845.54 288.958 1846.33C290.352 1847.12 291.879 1847.53 293.425 1847.52H856.814C858.354 1847.52 859.875 1847.11 861.265 1846.32C862.655 1845.53 863.88 1844.39 864.85 1842.97C865.821 1841.55 866.512 1839.9 866.875 1838.12C867.237 1836.35 867.262 1834.5 866.946 1832.71L858.202 1783.46C857.839 1781.45 857.059 1779.58 855.931 1778.02C854.804 1776.47 853.366 1775.27 851.748 1774.53C850.576 1773.99 849.328 1773.71 848.069 1773.71H302.13C300.871 1773.71 299.624 1773.99 298.452 1774.53C296.833 1775.27 295.395 1776.47 294.268 1778.02C293.141 1779.58 292.36 1781.45 291.998 1783.46L283.253 1832.71C282.943 1834.5 282.972 1836.34 283.339 1838.12C283.706 1839.89 284.401 1841.54 285.374 1842.96Z" fill="#2F2E41"/>
<path d="M1042.57 846.049H156.478C155.543 846.049 154.647 845.609 153.986 844.825C153.325 844.042 152.954 842.979 152.954 841.871C152.954 840.763 153.325 839.701 153.986 838.917C154.647 838.134 155.543 837.693 156.478 837.693H1042.57C1043.51 837.693 1044.4 838.134 1045.06 838.917C1045.72 839.701 1046.1 840.763 1046.1 841.871C1046.1 842.979 1045.72 844.042 1045.06 844.825C1044.4 845.609 1043.5 846.049 1042.57 846.049Z" fill="#3F3D56"/>
<path d="M216.794 816.359C228.198 816.359 237.443 805.154 237.443 791.332C237.443 777.51 228.198 766.305 216.794 766.305C205.39 766.305 196.145 777.51 196.145 791.332C196.145 805.154 205.39 816.359 216.794 816.359Z" fill="#3F3D56"/>
<path d="M288.132 816.359C299.536 816.359 308.781 805.154 308.781 791.332C308.781 777.51 299.536 766.305 288.132 766.305C276.727 766.305 267.482 777.51 267.482 791.332C267.482 805.154 276.727 816.359 288.132 816.359Z" fill="#3F3D56"/>
<path d="M359.47 816.359C370.874 816.359 380.119 805.154 380.119 791.332C380.119 777.51 370.874 766.305 359.47 766.305C348.065 766.305 338.82 777.51 338.82 791.332C338.82 805.154 348.065 816.359 359.47 816.359Z" fill="#3F3D56"/>
<path d="M1563.16 1773.33H1983.06L1991.33 1806.25H1563.16V1773.33Z" fill="#3F3D56"/>
<path d="M999.612 772.494H948.941C947.943 772.527 946.995 773.021 946.298 773.87C945.602 774.719 945.213 775.856 945.213 777.04C945.213 778.224 945.602 779.361 946.298 780.21C946.995 781.059 947.943 781.553 948.941 781.586H999.609C1000.12 781.603 1000.63 781.498 1001.11 781.277C1001.59 781.057 1002.02 780.724 1002.39 780.301C1002.76 779.877 1003.05 779.37 1003.25 778.81C1003.45 778.25 1003.55 777.648 1003.55 777.04C1003.55 776.432 1003.45 775.83 1003.25 775.27C1003.05 774.71 1002.76 774.203 1002.39 773.779C1002.02 773.355 1001.59 773.023 1001.11 772.803C1000.63 772.582 1000.12 772.477 999.609 772.494H999.612Z" fill="#3F3D56"/>
<path d="M999.609 789.568H948.942C947.924 789.568 946.949 790.047 946.229 790.9C945.51 791.753 945.105 792.909 945.105 794.116C945.105 795.322 945.51 796.479 946.229 797.331C946.949 798.184 947.924 798.663 948.942 798.663H999.609C1000.12 798.68 1000.63 798.576 1001.11 798.355C1001.59 798.134 1002.02 797.802 1002.39 797.378C1002.76 796.954 1003.05 796.447 1003.25 795.887C1003.45 795.327 1003.55 794.725 1003.55 794.118C1003.55 793.51 1003.45 792.908 1003.25 792.348C1003.05 791.788 1002.76 791.281 1002.39 790.857C1002.02 790.433 1001.59 790.101 1001.11 789.88C1000.63 789.659 1000.12 789.554 999.609 789.571V789.568Z" fill="#3F3D56"/>
<path d="M999.612 806.646H948.941C947.943 806.679 946.995 807.173 946.298 808.022C945.602 808.87 945.213 810.008 945.213 811.192C945.213 812.376 945.602 813.513 946.298 814.362C946.995 815.211 947.943 815.705 948.941 815.738H999.609C1000.12 815.755 1000.63 815.65 1001.11 815.429C1001.59 815.208 1002.02 814.876 1002.39 814.452C1002.76 814.029 1003.05 813.522 1003.25 812.962C1003.45 812.402 1003.55 811.8 1003.55 811.192C1003.55 810.584 1003.45 809.982 1003.25 809.422C1003.05 808.862 1002.76 808.355 1002.39 807.931C1002.02 807.507 1001.59 807.175 1001.11 806.954C1000.63 806.734 1000.12 806.629 999.609 806.646H999.612Z" fill="#3F3D56"/>
<path d="M2159.07 1815C2160.41 1819.65 2162.96 1823.67 2166.36 1826.48C2169.75 1829.3 2173.81 1830.77 2177.95 1830.68L2258.87 1828.22C2263.04 1828.12 2267.08 1826.42 2270.37 1823.38C2273.66 1820.34 2276.04 1816.12 2277.14 1811.35L2288.59 1666.18C2292.65 1668.37 2297.07 1669.44 2301.53 1669.34C2309.36 1669.1 2316.78 1665.2 2322.18 1658.47C2327.57 1651.75 2330.49 1642.76 2330.29 1633.49C2330.1 1624.21 2326.8 1615.41 2321.13 1609.01C2315.46 1602.62 2307.88 1599.16 2300.05 1599.39C2298.27 1599.38 2296.49 1599.6 2294.75 1600.04C2292.85 1597.61 2290.55 1595.68 2287.99 1594.37C2285.42 1593.05 2282.66 1592.39 2279.86 1592.43L2155.39 1596.24C2154.36 1596.28 2153.33 1596.44 2152.32 1596.69C2149.59 1597.3 2147.01 1598.58 2144.73 1600.47C2142.46 1602.36 2140.55 1604.81 2139.14 1607.64C2137.73 1610.48 2136.85 1613.64 2136.56 1616.91C2136.26 1620.19 2136.56 1623.5 2137.44 1626.62L2159.07 1815ZM2290.94 1656.33L2299.09 1621.74C2300.01 1617.74 2300.03 1613.53 2299.15 1609.52C2299.54 1609.52 2299.89 1609.3 2300.29 1609.3C2305.88 1609.15 2311.3 1611.63 2315.35 1616.21C2319.4 1620.8 2321.75 1627.1 2321.88 1633.73C2322.02 1640.37 2319.92 1646.79 2316.05 1651.6C2312.19 1656.4 2306.87 1659.18 2301.28 1659.34C2297.66 1659.47 2294.09 1658.43 2290.94 1656.34V1656.33Z" fill="#E6E6E6"/>
<path d="M2152.32 1596.71C2154.98 1614.67 2184.79 1627.32 2220.64 1625.12C2253.6 1623.33 2280.56 1609.6 2285.5 1593.34C2283.67 1592.7 2281.77 1592.39 2279.87 1592.45L2155.4 1596.26C2154.36 1596.3 2153.34 1596.45 2152.33 1596.71L2152.32 1596.71Z" fill="#D6D6E3"/>
<path d="M1306.1 1494.18C1306.1 1494.18 1036.81 1532.68 1062.52 1494.18C1071.83 1480.26 1074.4 1438.99 1073.89 1391.99C1073.73 1377.71 1073.28 1362.92 1072.68 1348.19C1069.7 1277.61 1062.53 1208.62 1062.53 1208.62C1062.53 1208.62 1297.99 1077.07 1270.92 1181.35C1260.09 1223.48 1263.65 1282.65 1271.87 1338.18C1274.28 1354.39 1277.07 1370.27 1279.99 1385.35C1287.12 1422.13 1295.83 1458.46 1306.1 1494.18Z" fill="#ED9DA0"/>
<path d="M794.972 2056.87V2054.18L1270.26 2048.05L1559.85 2044.84H1560.66L1560.36 2049.59L1560.76 2044.84H1561.28V2044.29L1564.99 2001.14L1566.39 1984.81L1566.83 1979.71L1567.2 1975.44L1583.93 1909.31L1600.66 1843.28L1614.73 1787.67L1636.22 1702.71C1636.22 1702.71 1624.04 1669.02 1617.27 1659.39C1610.51 1649.77 1583.94 1580.88 1583.94 1580.88C1583.94 1580.88 1546 1518.76 1520.75 1511.26C1510.17 1508.05 1489.28 1503.78 1467.08 1498.42C1458.78 1496.43 1395.1 1474.63 1391.31 1471.6C1371.41 1454.3 1321.56 1452.35 1319.64 1452.35C1319.64 1452.27 1319.64 1452.2 1319.64 1452.12V1451.83C1319.71 1450.49 1319.71 1449.14 1319.64 1447.79C1319.67 1446.29 1319.59 1444.79 1319.4 1443.3C1319.43 1442.76 1319.36 1442.21 1319.21 1441.7C1319.07 1440.54 1318.9 1439.32 1318.67 1438.04C1318.58 1437.47 1318.47 1436.9 1318.34 1436.34C1317.56 1432.47 1316.42 1428.72 1314.96 1425.14C1314.77 1424.63 1314.52 1424.08 1314.31 1423.57C1312.98 1420.61 1311.44 1417.78 1309.71 1415.13C1309.36 1414.59 1308.98 1414.01 1308.57 1413.46C1306.35 1410.37 1303.89 1407.53 1301.21 1404.99C1300.48 1404.32 1299.72 1403.61 1298.94 1402.97C1298.5 1402.55 1298.04 1402.16 1297.56 1401.81L1295.15 1399.95L1292.9 1398.41C1290.93 1397.13 1288.84 1395.88 1286.57 1394.69C1285.87 1394.31 1285.11 1393.95 1284.35 1393.61C1283.59 1393.27 1282.4 1392.72 1281.4 1392.27H1281.24L1279.21 1391.3C1277.66 1390.69 1276.09 1390.15 1274.44 1389.6L1271.92 1388.84L1269.22 1388.1L1266.51 1387.42C1263.81 1386.78 1260.91 1386.21 1257.88 1385.76L1254.8 1385.31L1251.63 1384.92L1248.35 1384.6L1243.7 1384.28L1238.29 1384.06C1214.41 1384.06 1190.59 1387.06 1167.24 1393.02C1151.04 1388.74 1134.44 1386.93 1117.85 1387.63H1115.5L1112.79 1387.82H1111.05L1107.56 1388.21C1106.38 1388.27 1105.21 1388.43 1104.04 1388.69C1102.88 1388.88 1101.66 1389.05 1100.5 1389.27L1098.71 1389.63C1096.95 1389.99 1095.17 1390.36 1093.3 1390.81C1092.71 1390.94 1092.11 1391.1 1091.52 1391.29C1089.16 1391.9 1086.81 1392.64 1084.48 1393.47C1083.32 1393.86 1082.16 1394.31 1080.99 1394.79C1080.39 1394.98 1079.83 1395.24 1079.26 1395.51L1077.53 1396.24L1075.82 1397.04L1073.79 1398.01C1072.76 1398.52 1071.76 1399.07 1070.76 1399.64C1070.19 1399.93 1069.62 1400.26 1069.08 1400.61C1068.54 1400.96 1067.97 1401.25 1067.46 1401.6C1061.34 1405.35 1055.68 1410.08 1050.65 1415.66L1049.27 1417.23L1047.91 1418.87C1047.45 1419.41 1047.02 1419.99 1046.59 1420.57C1044.82 1422.85 1043.18 1425.26 1041.66 1427.79C1041.23 1428.46 1040.82 1429.13 1040.41 1429.84C1038.7 1432.84 1037.14 1435.97 1035.76 1439.21C1035.41 1439.98 1035.08 1440.78 1034.76 1441.55C1032.55 1446.97 1030.74 1452.61 1029.35 1458.4C1028.84 1460.53 1028.38 1462.67 1027.97 1464.81C1027.97 1464.81 970.673 1494.78 923.15 1516.47C910.512 1522.25 898.607 1527.48 888.644 1531.42C885.748 1532.58 883.042 1533.64 880.524 1534.63C875.063 1536.97 869.385 1538.52 863.611 1539.25C860.888 1539.3 858.174 1539.6 855.49 1540.15C833.65 1544.35 796.22 1562.61 792.133 1580.93C791.802 1582.39 791.71 1583.92 791.863 1585.42C791.863 1585.42 702.851 1912.15 701.872 1918.15C697.933 1942.6 689.146 1989.16 684.822 2007.99C681.602 2022.04 676.92 2041.29 673.699 2054.51C673.651 2054.9 673.56 2055.28 673.43 2055.64L794.757 2054.23V2056.92H795.136L794.972 2056.87Z" fill="white"/>
<path d="M1319.79 1447.91C1241.32 1465.05 1093.54 1461.36 1029.67 1458.76C1053.08 1359.29 1167.23 1393.11 1167.23 1393.11C1308.54 1359.68 1319.36 1429.05 1319.79 1447.91Z" fill="white"/>
<path d="M1736.41 1886.43C1736.41 1886.43 1828.86 1869.59 1830.67 1917.72C1832.49 1965.85 1783.53 1999.47 1783.53 1999.47L1736.41 1886.43Z" fill="#ED9DA0"/>
<path d="M1804.96 1982.69C1804.96 1982.69 1802.55 1989.49 1798.11 1999.34C1791.4 2014.49 1783.23 2028.67 1773.76 2041.6L1773.03 2042.53H1768.64L1612.37 2044.23H1608.64L1608.18 2043.58L1577.88 2000.94L1566.46 1984.87L1566 1984.19L1565.02 1982.84L1564.48 1982.08L1563.78 1981.08L1541.56 1949.83L1549.68 1909.72L1563.51 1842.15L1563.86 1840.51L1566.57 1827.67L1568.49 1818.05L1574.93 1786.67L1597.01 1678.7L1636.25 1702.77L1677.63 1789.42L1699.85 1835.95H1712.02C1714.32 1835.95 1719.59 1841.21 1724.9 1847.27C1726.8 1849.43 1728.69 1851.7 1730.31 1853.69C1735.13 1859.59 1738.95 1864.66 1738.95 1864.66C1738.95 1864.66 1758.68 1865.18 1763.98 1883.59C1764.25 1884.49 1764.48 1885.4 1764.66 1886.32C1766.42 1893.56 1768.71 1900.6 1771.5 1907.37C1774.99 1916.38 1779.38 1926.62 1783.82 1936.85C1792.07 1955.62 1800.46 1973.49 1803.55 1979.96L1803.93 1980.76L1804.96 1982.69Z" fill="white"/>
<path d="M794.972 2056.87V2054.18L1270.26 2048.05L1559.85 2044.84H1560.66V2044.3L1563.36 2001.19L1564.53 1981.94L1568.97 1909.38L1572.46 1851.94V1850.53C1572.62 1847.88 1572.52 1845.23 1572.15 1842.61C1572.17 1842.5 1572.17 1842.39 1572.15 1842.29C1571.41 1836.87 1569.55 1831.76 1566.74 1827.4C1563.76 1822.87 1559.86 1819.31 1555.4 1817.07C1550.94 1814.82 1546.07 1813.96 1541.25 1814.57C1508.47 1818.55 1475.38 1821.72 1442.25 1824.19C1437.73 1824.58 1433.21 1824.91 1428.72 1825.19C1215.08 1840.24 1003.36 1828.04 888.796 1818.77L880.675 1818.05C860.838 1816.38 844.249 1814.85 831.474 1813.53C824.447 1812.83 817.449 1815.24 811.832 1820.29C806.215 1825.35 802.376 1832.69 801.056 1840.9C800.783 1842.64 800.619 1844.4 800.568 1846.16L798.729 1917.26L796.211 2007.33L795.02 2053.4V2057L794.972 2056.87Z" fill="#090814"/>
<path d="M1148.98 1356.79C1235.56 1356.79 1305.74 1273.58 1305.74 1170.94C1305.74 1068.29 1235.56 985.083 1148.98 985.083C1062.4 985.083 992.216 1068.29 992.216 1170.94C992.216 1273.58 1062.4 1356.79 1148.98 1356.79Z" fill="#ED9DA0"/>
<path d="M1360.86 1041.12C1359.65 1039.58 1358.18 1038.35 1356.56 1037.49C1354.93 1036.64 1353.18 1036.19 1351.4 1036.15L1353.76 1028.4C1354.52 1025.95 1354.73 1023.31 1354.35 1020.74C1353.97 1018.17 1353.03 1015.77 1351.61 1013.78C1350.19 1011.78 1348.35 1010.27 1346.28 1009.39C1344.21 1008.52 1341.98 1008.31 1339.82 1008.79L1331.23 1010.75L1332.04 1003.95C1332.36 1001.42 1332.11 998.835 1331.32 996.451C1330.53 994.068 1329.24 991.968 1327.56 990.36C1325.88 988.752 1323.87 987.69 1321.74 987.28C1319.61 986.87 1317.42 987.126 1315.4 988.022C1313.56 988.881 1311.58 989.24 1309.61 989.074C1307.64 988.908 1305.72 988.221 1304 987.063C1302.28 985.94 1300.78 984.384 1299.61 982.503C1298.45 980.623 1297.64 978.463 1297.25 976.175L1294.26 959.076L1293.96 958.16C1279.39 929.379 1251.39 908.443 1217.12 900.766C1186.61 893.883 1155.34 897.389 1125.19 900.684C1113.23 902.02 1099.72 903.521 1088.46 911.694C1078.89 918.702 1070.8 932.716 1072.45 946.855C1042.72 936.053 1010.85 957.632 995.052 984.811C976.336 1017.18 973.275 1057.73 972.782 1089.42C971.445 1164.41 984.499 1225.77 1011.48 1271.81C1013.45 1275.15 1013.94 1282.12 1017.84 1284.45L1017.03 1282.91C1021.4 1285.49 1025.82 1289.66 1024.18 1294.13C1019.43 1306.97 1050.99 1335.38 1073.22 1344.78C1113.79 1361.92 1167.72 1360.46 1205.63 1354.29L1206.97 1343.65C1220.65 1341.44 1230.3 1337.23 1233 1330.63C1237.79 1325.8 1241.87 1321.46 1245.42 1317.45L1245.46 1317.41C1245.53 1317.33 1245.67 1317.2 1245.74 1317.12C1262.88 1297.64 1266.85 1286.55 1268.65 1269.66C1270.37 1253.1 1267.31 1236.29 1264.18 1221.16C1330.11 1233.25 1238.21 1137.91 1299.63 1119.47C1300.33 1119.21 1301.05 1119 1301.77 1118.85C1303.57 1118.35 1305.36 1117.84 1307.08 1117.26C1315.39 1114.59 1323.35 1110.56 1330.72 1105.29C1347.89 1092.91 1353.55 1076.47 1362.42 1057.95C1363.7 1055.32 1364.23 1052.26 1363.95 1049.24C1363.67 1046.22 1362.57 1043.38 1360.84 1041.14L1360.86 1041.12Z" fill="#090814"/>
<path d="M466.49 999.816H730.246C735.768 999.816 741.064 1002.42 744.969 1007.05C748.874 1011.68 751.068 1017.95 751.068 1024.5C751.068 1031.05 748.874 1037.33 744.969 1041.96C741.064 1046.59 735.768 1049.19 730.246 1049.19H466.49C460.968 1049.19 455.672 1046.59 451.767 1041.96C447.862 1037.33 445.668 1031.05 445.668 1024.5C445.668 1017.95 447.862 1011.68 451.767 1007.05C455.672 1002.42 460.968 999.816 466.49 999.816Z" fill="white"/>
<path d="M397.082 1115.02H799.657C805.179 1115.02 810.475 1117.62 814.38 1122.25C818.285 1126.88 820.479 1133.16 820.479 1139.71C820.479 1146.25 818.285 1152.53 814.38 1157.16C810.475 1161.79 805.179 1164.39 799.657 1164.39H397.082C391.56 1164.39 386.263 1161.79 382.358 1157.16C378.454 1152.53 376.26 1146.25 376.26 1139.71C376.26 1133.16 378.454 1126.88 382.358 1122.25C386.263 1117.62 391.56 1115.02 397.082 1115.02Z" fill="#E6E6E6"/>
<path d="M397.082 1230.23H799.657C805.179 1230.23 810.475 1232.83 814.38 1237.46C818.285 1242.09 820.479 1248.37 820.479 1254.91C820.479 1261.46 818.285 1267.74 814.38 1272.37C810.475 1277 805.179 1279.6 799.657 1279.6H397.082C391.56 1279.6 386.263 1277 382.358 1272.37C378.454 1267.74 376.26 1261.46 376.26 1254.91C376.26 1248.37 378.454 1242.09 382.358 1237.46C386.263 1232.83 391.56 1230.23 397.082 1230.23Z" fill="#E6E6E6"/>
</g>
<defs>
<clipPath id="clip0_359_482">
<rect width="2424" height="2057" fill="white"/>
</clipPath>
</defs>
</svg>
