<svg width="2163" height="1861" viewBox="0 0 2163 1861" fill="none" xmlns="http://www.w3.org/2000/svg">
<g clip-path="url(#clip0_359_557)">
<path d="M1054.55 1369.69C1106.04 1385.75 1139.49 1425.33 1129.26 1458.09C1119.03 1490.85 1069.01 1504.39 1017.5 1488.31C996.839 1482.17 977.947 1471.18 962.406 1456.24L745.1 1385.44L780.505 1284.19L990.972 1364.74C1012.26 1361.29 1034.06 1362.98 1054.55 1369.69Z" fill="#FFB6B6"/>
<path d="M589.021 626.769C537.206 620.633 489.496 655.648 479.844 706.917C445.415 889.782 372.291 1285.22 381.921 1294.85C394.457 1307.38 862.495 1445.26 862.495 1445.26L916.82 1328.27L607.582 1177.86L675.402 740.487C684.011 684.963 644.827 633.378 589.021 626.769Z" fill="#E6E6E6"/>
<path d="M1152.89 1559.9C1102.65 1579.52 1051.8 1569.51 1039.31 1537.54C1026.83 1505.57 1057.44 1463.75 1107.7 1444.13C1127.67 1436.02 1149.29 1432.81 1170.76 1434.76L1384.68 1354.31L1420.3 1455.49L1205.63 1524.05C1191.16 1540.04 1173.08 1552.34 1152.89 1559.9Z" fill="#A0616A"/>
<path d="M1461.39 691.5C1512.67 681.896 1562.63 713.626 1575.71 764.13C1622.35 944.269 1721.88 1333.9 1712.92 1344.15C1701.26 1357.5 1243.55 1526.52 1243.55 1526.52L1181.48 1413.44L1479.91 1242.59L1382.85 810.764C1370.52 755.944 1406.15 701.843 1461.39 691.5Z" fill="#E6E6E6"/>
<path d="M552.316 653.038L577.804 493.762L405.76 423.681L380.271 665.78L552.316 653.038Z" fill="#FFB6B6"/>
<path d="M1557.13 678.107L1531.64 518.832L1703.69 448.75L1729.18 690.849L1557.13 678.107Z" fill="#A0616A"/>
<path d="M508.839 544.963C605.734 544.963 684.283 466.427 684.283 369.547C684.283 272.667 605.734 194.13 508.839 194.13C411.944 194.13 333.395 272.667 333.395 369.547C333.395 466.427 411.944 544.963 508.839 544.963Z" fill="#FFB6B6"/>
<path d="M494.837 133.712C499.914 136.675 506.714 132.192 508.342 126.544C509.97 120.897 508.073 114.9 506.193 109.332L496.727 81.299C490.013 61.4174 482.888 40.841 468.348 25.7086C446.402 2.86858 411.525 -2.94182 380.129 1.26761C339.81 6.67333 300.029 28.5022 281.282 64.599C262.535 100.696 270.516 151.064 304.391 173.585C256.112 228.912 239.283 290.572 241.94 363.948C244.597 437.325 324.573 504.856 376.727 556.547C388.374 549.488 398.963 516.405 392.558 504.387C386.153 492.369 395.33 478.446 387.398 467.376C379.466 456.306 372.829 473.933 380.849 462.926C385.909 455.98 366.159 440.001 373.681 435.844C410.062 415.737 422.162 370.396 445.012 335.675C472.574 293.795 519.745 265.433 569.664 260.728C597.163 258.136 626.208 262.831 648.748 278.793C671.288 294.755 685.88 323.279 680.653 350.396C694.19 336.654 700.928 316.515 698.386 297.395C695.845 278.275 684.08 260.594 667.423 250.864C677.551 217.377 668.875 178.857 645.367 152.944C621.86 127.031 526.502 131.444 492.183 138.264" fill="#2F2E41"/>
<path d="M489.507 261.745C444.053 266.651 411.234 306.018 383.521 342.373C367.548 363.328 350.816 386.469 351.217 412.812C351.622 439.447 369.433 462.291 377.945 487.532C391.858 528.79 378.298 577.877 345.179 606.146C377.904 612.355 413.281 587.821 418.931 555C425.507 516.791 396.539 479.914 399.97 441.296C402.992 407.273 429.808 381.088 452.606 355.649C475.403 330.21 496.814 296.454 486.326 263.946" fill="#2F2E41"/>
<path d="M572.193 626.33L373.563 572.013L168.797 655.578L81.04 1349.17L582.509 1365.88V1254C582.509 1254 670.266 1144.43 653.55 985.659L636.834 826.885L572.193 626.33Z" fill="#E6E6E6"/>
<path d="M663.997 908.361L271.18 887.47L164.618 1190.39C164.618 1190.39 32.9823 1372.15 12.0877 1505.85C-8.80678 1639.55 3.72993 1827.57 3.72993 1827.57H632.606L582.508 1254C582.508 1254 699.468 1000.28 685.911 956.411C672.355 912.539 663.997 908.361 663.997 908.361Z" fill="#3F3D56"/>
<path d="M363.116 574.102H267.001V929.252H363.116V574.102Z" fill="#3F3D56"/>
<path d="M659.818 653.488H563.703V945.965H659.818V653.488Z" fill="#3F3D56"/>
<path d="M1528.9 659.756L1727.53 605.438L1932.29 689.003L2020.05 1382.59L1518.58 1399.3V1287.43C1518.58 1287.43 1467.28 1173.05 1516.49 1021.17C1564.55 872.846 1464.26 860.311 1464.26 860.311L1528.9 659.756Z" fill="#E6E6E6"/>
<path d="M1437.09 941.787L1829.91 920.896L1936.47 1223.82C1936.47 1223.82 2001.25 1430.64 2022.14 1564.34C2043.03 1698.05 2097.36 1861 2097.36 1861H1468.48L1449.63 1309.47L1437.09 941.787Z" fill="#3F3D56"/>
<path d="M1834.09 607.527H1737.98V962.678H1834.09V607.527Z" fill="#3F3D56"/>
<path d="M1537.39 686.914H1441.27V979.391H1537.39V686.914Z" fill="#3F3D56"/>
<path d="M1595.99 569.341C1717.34 569.341 1815.72 470.977 1815.72 349.638C1815.72 228.3 1717.34 129.936 1595.99 129.936C1474.63 129.936 1376.25 228.3 1376.25 349.638C1376.25 470.977 1474.63 569.341 1595.99 569.341Z" fill="#A0616A"/>
<path d="M1812.12 468.822C1812.12 468.822 1705.81 341.269 1663.29 351.898C1620.76 362.528 1647.34 378.472 1647.34 378.472L1541.03 261.548C1541.03 261.548 1455.98 229.66 1376.25 330.64C1376.25 330.64 1328.41 245.604 1376.25 197.772C1424.09 149.939 1440.04 155.254 1450.67 128.68C1461.3 102.107 1535.72 80.8477 1535.72 80.8477C1535.72 80.8477 1531.45 42.5984 1554.84 61.7231C1578.24 80.8477 1636.67 80.8477 1636.67 80.8477C1636.67 80.8477 1637 59.5888 1660.78 80.8477C1684.55 102.107 1711.13 91.4771 1711.13 91.4771C1711.13 91.4771 1711.13 128.262 1729.73 128.471C1748.34 128.68 1780.23 102.107 1785.55 123.365C1790.86 144.624 1828.07 155.254 1833.39 219.03C1838.7 282.807 1812.12 468.822 1812.12 468.822Z" fill="#2F2E41"/>
<path d="M997.163 796.74L1167.29 1118.31L1143.97 1130.64L973.843 809.074C971.373 804.407 973.158 798.613 977.827 796.144L984.23 792.757C988.899 790.288 994.694 792.073 997.163 796.74Z" fill="#3F3D56"/>
<path d="M1280.6 1239.84C1237.31 1228.68 1192.03 1248.44 1170.31 1287.5C1143.11 1336.41 1112.04 1376.53 1122.45 1280.9C1133.9 1175.62 1072.13 1090.59 1120.68 1064.92C1169.22 1039.24 1219.35 1117.27 1298.25 1187.92C1371.38 1253.4 1329.21 1252.37 1280.6 1239.84Z" fill="#3F3D56"/>
<path d="M1030.07 861.793C1079.13 839.394 1130.46 846.55 1144.71 877.772C1158.97 908.995 1130.74 952.454 1081.66 974.855C1062.17 984.072 1040.76 988.489 1019.22 987.738L810.133 1080.02L768.912 980.993L979.414 900.533C992.961 883.76 1010.33 870.476 1030.07 861.793Z" fill="#FFB6B6"/>
<path d="M187.479 619.199C144.797 649.207 132.641 707.118 159.676 751.739C256.103 910.892 465.609 1254.17 479.207 1254.91C496.91 1255.88 937.492 1046.24 937.492 1046.24L899.854 922.861L569.162 1017.2L327.714 646.241C297.063 599.148 233.449 586.881 187.479 619.199Z" fill="#E6E6E6"/>
<path d="M1050.98 1355.64L1616.15 1056.73L1685.53 1187.87C1745.37 1300.99 1702.11 1441.41 1588.97 1501.24L1433.78 1583.32C1320.64 1643.16 1180.2 1599.9 1120.35 1486.78L1050.98 1355.64Z" fill="#BB00CC"/>
<path d="M1529.81 1556.57C1480.74 1578.98 1429.41 1571.83 1415.16 1540.61C1400.9 1509.39 1429.11 1465.93 1478.2 1443.52C1497.68 1434.3 1519.09 1429.88 1540.63 1430.63L1749.71 1338.31L1790.94 1437.33L1580.45 1517.83C1566.91 1534.6 1549.54 1547.89 1529.81 1556.57Z" fill="#A0616A"/>
<path d="M1955.03 672.73C2006.85 666.594 2054.56 701.608 2064.21 752.877C2098.64 935.743 2171.76 1331.18 2162.13 1340.81C2149.6 1353.34 1681.56 1491.23 1681.56 1491.23L1627.23 1374.23L1936.47 1223.82L1868.65 786.447C1860.04 730.923 1899.23 679.338 1955.03 672.73Z" fill="#E6E6E6"/>
</g>
<defs>
<clipPath id="clip0_359_557">
<rect width="2163" height="1861" fill="white"/>
</clipPath>
</defs>
</svg>
