<svg width="1988" height="1950" viewBox="0 0 1988 1950" fill="none" xmlns="http://www.w3.org/2000/svg">
<g clip-path="url(#clip0_341_511)">
<path d="M614.775 1444.42L39.7407 1513.59C26.0663 1515.24 23.993 1533.1 36.9667 1537.49L1253.43 1949.27C1256.04 1950.15 1258.87 1950.24 1261.53 1949.51L1978.54 1753.01C1991.58 1749.44 1990.98 1731.85 1977.73 1729.07L619.282 1444.62C617.803 1444.31 616.278 1444.24 614.775 1444.42Z" fill="white"/>
<path d="M317.001 1288.01C317.001 1288.01 276.697 1279.57 267.74 1304.89C258.784 1330.21 254.305 1376.63 254.305 1376.63V1416.42C254.305 1416.42 191.609 1520.1 263.262 1553.86C334.914 1587.62 375.219 1574.96 375.219 1574.96C375.219 1574.96 420.002 1553.86 397.61 1524.32L375.219 1494.79C375.219 1494.79 374.793 1436.68 383.962 1431.97C393.132 1427.27 402.089 1414.61 402.089 1414.61L411.045 1317.55C411.045 1317.55 366.262 1271.13 317.001 1288.01Z" fill="#090814"/>
<path d="M801.243 214.819C801.243 214.819 838.685 342.014 801.757 378.256C764.83 414.497 773.41 442.282 773.41 442.282C773.41 442.282 680.127 470.341 666.5 366.461L689.25 445.734C689.25 445.734 601.674 439.223 627.273 336.133C652.873 233.042 684.605 232.935 666.5 201.34C648.394 169.744 648.394 9.38861 751.395 0.94885C854.395 -7.49091 840.961 43.1476 840.961 43.1476L801.243 214.819Z" fill="#090814"/>
<path d="M1209.37 644.472C1209.37 644.472 1311.18 832.265 1284.31 882.903C1257.44 933.542 1162.7 1034.38 1162.7 1034.38H1062.75L1127.74 957.866L1175.79 839.424L1123.09 727.033L1209.37 644.472Z" fill="#ED9DA0"/>
<path d="M809.418 231.51C805.195 146.094 875.256 73.6244 965.902 69.6454C1056.55 65.6665 1133.46 131.684 1137.68 217.101C1141.1 286.374 1095.67 347.123 1030.02 369.737L1008.06 568.722L840.026 448.807C840.026 448.807 872.896 405.333 889.297 357.219C843.637 331.467 812.079 285.353 809.418 231.51Z" fill="#ED9DA0"/>
<path d="M1021.8 433.421C1021.8 433.421 1035.23 513.599 860.578 408.102L690.938 496.785L749.156 741.538L758.112 847.034C758.112 847.034 726.764 868.134 731.243 897.673C731.243 897.673 659.59 935.652 659.59 1003.17C659.59 1003.17 596.894 1053.81 646.155 1066.47C695.416 1079.13 852.156 1058.03 852.156 1058.03L1071.59 990.51C1071.59 990.51 1107.42 964.423 1071.59 933.158L1125.33 775.297C1125.33 775.297 1158.36 745.757 1146.32 701.449C1146.32 701.449 1232.81 690.899 1241.77 669.8C1241.77 669.8 1143.24 484.125 1111.9 475.685C1080.55 467.245 1021.8 433.421 1021.8 433.421Z" fill="white"/>
<path d="M1144.09 701.606C1144.03 700.934 1138.61 634.348 1121.23 609.783C1103.07 584.117 1107.24 546.662 1107.43 545.079L1111.88 545.545C1111.84 545.92 1107.71 583.074 1124.95 607.442C1142.99 632.93 1148.34 698.515 1148.56 701.293L1144.09 701.606Z" fill="#090814"/>
<path d="M643.916 1047.48C643.916 1047.48 549.872 1233.15 711.09 1271.13C872.308 1309.11 1096.22 1207.83 1096.22 1207.83C1096.22 1207.83 1069.35 1338.65 1105.18 1401.95L1123.09 1520.11C1123.09 1520.11 1212.66 1526.98 1241.77 1506.66L1275.35 1195.17C1275.35 1195.17 1288.79 1068.58 1248.48 1055.92C1208.18 1043.26 1069.35 1013.72 1069.35 1013.72L1055.17 986.26L643.916 1047.48Z" fill="#090814"/>
<path d="M697.655 1233.15L634.959 1401.95L437.915 1338.65C437.915 1338.65 393.132 1342.87 406.567 1427.27C406.567 1427.27 487.176 1469.47 563.307 1528.54C639.438 1587.62 724.869 1574.96 758.284 1528.54C791.699 1482.13 932.278 1325.33 947.076 1258.14L697.655 1233.15Z" fill="#090814"/>
<path d="M1136.53 1494.79L1123.09 1520.11L1145.48 1676.24L1257.44 1655.14L1241.77 1506.66L1136.53 1494.79Z" fill="#ED9DA0"/>
<path d="M1203.7 1625.6C1203.7 1625.6 1137.37 1659.36 1132.47 1585.51C1132.47 1585.51 1099.46 1598.8 1095.6 1633.3C1091.74 1667.8 1082.79 1701.56 1082.79 1701.56C1082.79 1701.56 1051.44 1752.2 1096.22 1760.64C1141.01 1769.08 1181.31 1769.08 1181.31 1769.08C1181.31 1769.08 1342.53 1861.91 1432.09 1760.64C1432.09 1760.64 1450.01 1731.1 1409.7 1718.44C1369.4 1705.78 1342.53 1680.46 1342.53 1680.46L1277.5 1612.94C1277.5 1612.94 1271.19 1566.52 1235.21 1585.51C1199.22 1604.5 1203.7 1625.6 1203.7 1625.6Z" fill="#090814"/>
<path d="M437.915 1347.09V1338.65L366.262 1313.33C366.262 1313.33 316.723 1348.81 348.21 1400.7L406.567 1427.27L437.915 1347.09Z" fill="#ED9DA0"/>
<path d="M1062.75 44.6424C1062.75 44.6424 935.004 -37.0301 840.96 43.1476C746.917 123.325 740.59 270.403 889.298 357.219L876.787 296.34C876.787 296.34 840.96 245.702 899.178 249.922C957.396 254.141 948.439 203.503 948.439 203.503C948.439 203.503 1073.12 150.541 1073.48 113.724L1119.97 182.558C1119.97 182.558 1212.89 109.435 1062.75 44.6424Z" fill="#090814"/>
<path d="M867.83 43.1475C867.83 43.1475 845.306 -6.14078 816.264 31.163C787.221 68.4667 809.236 95.1898 809.236 95.1898L867.83 43.1475Z" fill="white"/>
<path d="M872.037 1032.72C855.344 1022.76 836.414 1019.93 820.386 1023.56L811.034 1017.65C782.509 994.776 644.463 882.838 627.273 844.978L720.047 722.548L616.648 644.472C616.648 644.472 487.176 840.705 523.002 891.343C555.019 936.598 735.233 1044.05 773.193 1066.39L785.725 1075.12C789.086 1090.33 799.884 1105.25 816.579 1115.22C845.791 1132.65 881.886 1128.32 897.199 1105.54C912.514 1082.76 901.249 1050.16 872.037 1032.72Z" fill="#ED9DA0"/>
<path d="M355.067 1792.29C355.067 1792.29 350.589 1745.87 337.154 1741.65C323.719 1737.43 287.893 1728.99 287.893 1728.99C287.893 1728.99 211.762 1720.55 211.762 1821.83C211.762 1821.83 219.201 1848.67 228.916 1852.13C238.631 1855.58 274.458 1868.24 274.458 1868.24C274.458 1868.24 332.675 1868.24 332.675 1842.93L433.475 1868.24C433.475 1868.24 422.241 1914.66 444.632 1927.32C467.024 1939.98 500.987 1950 500.987 1950C500.987 1950 565.546 1931.54 574.503 1902C583.459 1872.46 596.894 1804.95 556.59 1796.51L511.807 1779.63C511.807 1779.63 464.785 1781.74 442.393 1815.5L355.067 1792.29Z" fill="#D6D6E3"/>
<path d="M1767.97 1515.88V1553.98C1767.97 1553.98 1741.1 1553.86 1741.1 1604.5V1828.44C1741.1 1828.44 1749.31 1857.69 1803.79 1857.69C1857.53 1857.69 1866.49 1836.6 1866.49 1836.6V1607.77C1866.49 1607.77 1866.49 1558.08 1835.14 1549.64L1834.51 1515.88C1834.51 1515.88 1812.75 1490.57 1767.97 1515.88Z" fill="#D6D6E3"/>
<path d="M228.916 1026.67L207.283 1028.49C207.283 1028.49 193.848 931.432 175.935 906.112L189.37 897.673L198.327 939.871C198.327 939.871 207.283 910.332 193.849 893.453L207.283 872.353V830.155C207.283 830.155 180.414 716.218 41.5869 678.239C41.5869 678.239 153.544 686.679 207.283 792.176L211.762 707.778C211.762 707.778 184.892 530.543 126.674 492.564C126.674 492.564 208.621 560.083 221.387 703.558C221.387 703.558 261.023 526.323 355.067 513.664C355.067 513.664 254.714 589.622 230.999 701.448L220.718 821.715C220.718 821.715 310.284 686.679 404.328 690.899C404.328 690.899 283.414 716.218 234.153 825.935C234.153 825.935 207.283 882.83 222.957 932.45C222.957 932.45 247.588 842.814 256.545 842.814L252.066 876.573C252.066 876.573 220.718 927.212 225.197 952.531C229.675 977.85 228.916 1026.67 228.916 1026.67Z" fill="#D6D6E3"/>
<path d="M247.996 1253.01L168.376 1251.22C138.395 1250.55 113.883 1228.48 111.796 1200.29L102.044 1068.58H317.002L307.348 1201.99C305.233 1231.22 279.077 1253.7 247.996 1253.01Z" fill="#D6D6E3"/>
<path d="M299.261 1087.25C239.435 1090.17 179.609 1090.17 119.783 1087.25C102.327 1086.39 88.6084 1072.84 88.6084 1056.37V1017.94C162.263 999.164 243.908 1001.96 330.436 1017.94V1056.37C330.436 1072.84 316.717 1086.39 299.261 1087.25Z" fill="#D6D6E3"/>
<path d="M55.0215 412.387C55.0215 412.387 19.1953 488.345 135.631 602.281C135.631 602.281 189.37 627.6 198.327 627.6C198.327 627.6 211.761 598.061 216.24 589.622C220.718 581.182 226.415 516.573 171.457 458.805C112.983 397.343 81.5764 404.262 55.0215 412.387Z" fill="#D6D6E3"/>
<path d="M235.556 655.989C235.556 655.989 209.522 587.512 249.827 545.313C290.131 503.114 348.349 460.915 388.653 473.575C388.653 473.575 402.088 486.235 393.132 507.334C389.532 515.814 384.486 528.383 379.737 540.384C368.438 568.943 350.549 594.924 326.621 615.432C318.22 622.632 309.899 628.55 303.27 630.766C281.175 638.15 245.287 655.989 245.287 655.989H235.556Z" fill="#D6D6E3"/>
<path d="M183.401 778.544C183.401 778.544 119.957 781.626 66.2174 739.428C25.394 707.371 7.82939 682.62 1.74445 672.574C-0.973738 668.087 -0.508213 662.428 3.09114 658.53C8.46193 652.713 20.9273 646.542 49.8224 648.062C102.044 650.81 142.348 663.47 164.74 688.789C187.131 714.108 197.353 742.2 194.481 770.353L183.401 778.544Z" fill="#D6D6E3"/>
<path d="M254.564 778.593C254.564 778.593 229.754 723.479 329.418 674.376C339.218 669.547 349.926 666.591 360.941 665.655C389.967 663.189 447.087 662.973 460.306 697.228C460.306 697.228 458.09 703.863 430.089 721.645C410.593 734.026 389.612 743.881 378.665 748.726C373.884 750.842 368.881 752.416 363.709 753.421L268.936 771.84L254.564 778.593Z" fill="#D6D6E3"/>
<path d="M207.284 851.051L117.718 828.133C117.718 828.133 83.5062 819.198 59.188 851.051C34.8698 882.903 30.3915 912.442 30.3915 912.442C30.3915 912.442 21.4349 954.641 39.3481 963.081C57.2612 971.521 175.936 906.113 175.936 906.113C175.936 906.113 209.523 890.936 207.284 851.051Z" fill="#D6D6E3"/>
<path d="M256.545 842.815L317.001 819.948C317.001 819.948 397.61 811.165 420.002 861.804C442.393 912.443 428.959 925.102 428.959 925.102C428.959 925.102 428.958 933.542 411.045 933.542C393.132 933.542 293.565 908.584 247.065 885.194L256.545 842.815Z" fill="#D6D6E3"/>
<path d="M737.96 498.895L690.938 496.785C690.938 496.785 576.742 629.711 576.742 671.91C576.742 671.91 711.091 697.229 729.004 764.747L801.758 630.766L737.96 498.895Z" fill="white"/>
</g>
<defs>
<clipPath id="clip0_341_511">
<rect width="1988" height="1950" fill="white"/>
</clipPath>
</defs>
</svg>
