<svg width="2160" height="1610" viewBox="0 0 2160 1610" fill="none" xmlns="http://www.w3.org/2000/svg">
<g clip-path="url(#clip0_360_589)">
<path d="M1448.16 942.338H19.7965C14.5476 942.331 9.51552 940.029 5.80423 935.937C2.09295 931.845 0.00554994 926.297 0 920.511L0 21.8248C0.00624361 16.0386 2.09395 10.4914 5.80516 6.39993C9.51637 2.30848 14.5481 0.00688331 19.7965 0H1448.18C1453.42 0.00994095 1458.45 2.31289 1462.16 6.40401C1465.87 10.4951 1467.95 16.0406 1467.96 21.8248V920.511C1467.95 926.297 1465.87 931.845 1462.16 935.937C1458.44 940.028 1453.41 942.329 1448.16 942.335V942.338Z" fill="#090814"/>
<path d="M1434.99 36.4189H37.2285V905.919H1434.99V36.4189Z" fill="white"/>
<path d="M1287.75 264.048C1302.32 264.048 1314.13 251.026 1314.13 234.963C1314.13 218.9 1302.32 205.879 1287.75 205.879C1273.18 205.879 1261.37 218.9 1261.37 234.963C1261.37 251.026 1273.18 264.048 1287.75 264.048Z" fill="#6C63FF"/>
<path d="M1284.92 234.963L1288.03 238.391L1130.38 412.183L1080.92 357.65L994.08 453.388L887.459 335.839L706.087 535.794L623.645 444.903L443.374 643.646L342.245 532.156L156.933 736.457L153.824 733.029L342.248 525.304L443.377 636.794L623.648 438.054L706.09 528.942L887.461 328.987L994.085 446.536L1080.92 350.798L1130.39 405.334L1284.92 234.963Z" fill="#6C63FF"/>
<path d="M879.757 365.132C894.327 365.132 906.139 352.111 906.139 336.048C906.139 319.985 894.327 306.963 879.757 306.963C865.187 306.963 853.376 319.985 853.376 336.048C853.376 352.111 865.187 365.132 879.757 365.132Z" fill="#6C63FF"/>
<path d="M343.34 556.605C357.91 556.605 369.722 543.583 369.722 527.52C369.722 511.458 357.91 498.436 343.34 498.436C328.77 498.436 316.959 511.458 316.959 527.52C316.959 543.583 328.77 556.605 343.34 556.605Z" fill="#6C63FF"/>
<path d="M1729.89 1345.12L1698.5 1363.99L1718.47 1436.34L1749.86 1439.48L1766.98 1398.59L1729.89 1345.12Z" fill="#FFB9B9"/>
<path d="M1826.89 1489.81V1524.41L1875.39 1521.26L1874.71 1492.77L1826.89 1489.81Z" fill="#FFB9B9"/>
<path d="M1718.47 929.909L1735.59 1165.83L1789.8 1511.83L1875.4 1499.25L1846.87 1225.59L1858.28 973.949L1718.47 929.909Z" fill="#090814"/>
<path d="M1946.73 753.765L1741.3 756.909L1718.47 929.912L1858.28 1002.26L1892.51 1140.66L1718.46 1345.11L1786.94 1439.48C1786.94 1439.48 1883.95 1294.79 1955.28 1213C2026.61 1131.22 1992.38 882.725 1992.38 882.725L1946.73 753.765Z" fill="#090814"/>
<path d="M1824.04 307.099C1858.71 307.099 1886.82 276.116 1886.82 237.897C1886.82 199.677 1858.71 168.694 1824.04 168.694C1789.38 168.694 1761.27 199.677 1761.27 237.897C1761.27 276.116 1789.38 307.099 1824.04 307.099Z" fill="#FFB9B9"/>
<path d="M1801.21 285.081V354.283L1844 429.774C1844 429.774 1909.63 376.31 1895.36 363.719C1881.1 351.127 1878.24 253.612 1878.24 253.612L1801.21 285.081Z" fill="#FFB9B9"/>
<path d="M1801.22 341.697L1758.42 398.314L1775.54 791.501L1909.63 788.357L1932.46 445.498L1903.93 357.424L1884.35 328.068L1849.72 385.731L1801.22 341.697Z" fill="#E6E6E6"/>
<path d="M1732.74 546.157L1701.35 678.268L1732.74 810.378L1681.38 885.863L1635.73 646.805C1635.73 646.805 1669.97 451.784 1672.82 429.771C1675.68 407.758 1681.38 404.605 1681.38 404.605L1704.21 407.75L1732.74 546.157Z" fill="#090814"/>
<path d="M1960.99 596.485L1980.96 637.381L1986.67 706.58L1975.26 785.218L2015.2 857.565L2055.15 659.396L2012.35 404.594H1995.23L1960.99 596.485Z" fill="#090814"/>
<path d="M1718.47 1341.97C1718.47 1341.97 1678.53 1354.56 1664.26 1357.7C1650 1360.84 1672.82 1420.61 1672.82 1420.61C1672.82 1420.61 1687.09 1502.4 1689.94 1518.12C1692.8 1533.85 1712.77 1587.33 1738.44 1593.61C1764.11 1599.9 1747 1483.51 1747 1483.51C1747 1483.51 1758.41 1445.76 1758.41 1433.18C1758.41 1420.6 1741.29 1426.89 1741.29 1426.89C1695.65 1420.61 1718.47 1341.97 1718.47 1341.97Z" fill="#090814"/>
<path d="M1812.63 1584.18C1815.48 1603.05 1809.77 1603.05 1855.43 1609.34C1901.08 1615.63 1889.66 1574.74 1889.66 1574.74C1887.76 1555.46 1883.93 1536.47 1878.25 1518.12C1869.69 1492.95 1824.04 1524.41 1824.04 1524.41C1824.04 1524.41 1809.78 1565.3 1812.63 1584.18Z" fill="#090814"/>
<path d="M1878.33 255.82L1879.81 283.795C1879.81 283.795 1898.22 237.897 1901.08 190.713C1903.93 143.529 1855.43 143.445 1826.89 140.298C1798.36 137.151 1757.77 157.059 1757.77 182.228C1757.77 207.396 1801.22 193.857 1821.19 187.568C1841.16 181.28 1849.72 234.752 1849.72 234.752L1861.13 237.897L1878.33 255.82Z" fill="#090814"/>
<path d="M1784.38 363.973L1801.22 341.697L1849.71 385.734L1801.22 423.48L1784.38 363.973Z" fill="#E6E6E6"/>
<path d="M1903.93 357.427L1883.96 329.106L1849.72 385.723L1892.52 420.324L1903.93 357.427Z" fill="#E6E6E6"/>
<path d="M1724.18 590.191L1735.59 709.722L1712.77 782.068L1698.5 851.271C1698.5 851.271 1698.5 917.326 1755.57 920.473C1812.63 923.62 1861.13 722.305 1861.13 722.305C1861.13 722.305 1869.69 766.341 1875.4 791.507C1881.11 816.673 1978.11 917.329 1978.11 917.329C1978.11 917.329 2000.94 914.182 2020.91 863.865C2040.89 813.548 1980.98 766.341 1980.98 766.341L1963.86 700.286L1969.56 618.501L2009.51 404.605L1891.1 336.981L1903.95 517.848L1861.15 659.397L1796.95 346.417L1775.55 363.716L1684.25 404.608L1724.18 590.191Z" fill="#090814"/>
<path d="M1530.87 1605.58C1530.87 1608.03 1531.43 1610 1532.13 1610H2158.74C2159.44 1610 2160 1608.03 2160 1605.58C2160 1603.13 2159.44 1601.16 2158.74 1601.16H1532.13C1531.43 1601.16 1530.87 1603.13 1530.87 1605.58Z" fill="#CCCCCC"/>
</g>
<defs>
<clipPath id="clip0_360_589">
<rect width="2160" height="1610" fill="white"/>
</clipPath>
</defs>
</svg>
