<svg width="29" height="24" viewBox="0 0 29 24" fill="none" xmlns="http://www.w3.org/2000/svg">
<path d="M18.415 22.27H18.2579C12.8929 22.27 10.3071 20.52 9.85998 16.6C9.81164 16.19 10.1741 15.82 10.6816 15.78C11.1771 15.74 11.6241 16.05 11.6725 16.46C12.0229 19.6 13.8112 20.77 18.27 20.77H18.4271C23.345 20.77 25.085 19.33 25.085 15.26V8.73998C25.085 4.66998 23.345 3.22998 18.4271 3.22998H18.27C13.7871 3.22998 11.9987 4.41998 11.6725 7.61998C11.6121 8.02998 11.2012 8.33998 10.6816 8.29998C10.1741 8.26998 9.81164 7.89998 9.84789 7.48998C10.2587 3.50998 12.8566 1.72998 18.2579 1.72998H18.415C24.3479 1.72998 26.8854 3.82998 26.8854 8.73998V15.26C26.8854 20.17 24.3479 22.27 18.415 22.27Z" fill="#171717"/>
<path d="M17.98 12.75H2.41669C1.92127 12.75 1.51044 12.41 1.51044 12C1.51044 11.59 1.92127 11.25 2.41669 11.25H17.98C18.4754 11.25 18.8863 11.59 18.8863 12C18.8863 12.41 18.4875 12.75 17.98 12.75Z" fill="#171717"/>
<path d="M15.2854 16.1C15.0558 16.1 14.8263 16.03 14.645 15.88C14.2946 15.59 14.2946 15.11 14.645 14.82L18.0525 12L14.645 9.17997C14.2946 8.88997 14.2946 8.40997 14.645 8.11997C14.9954 7.82997 15.5754 7.82997 15.9258 8.11997L19.9738 11.47C20.3242 11.76 20.3242 12.24 19.9738 12.53L15.9258 15.88C15.7446 16.03 15.515 16.1 15.2854 16.1Z" fill="#171717"/>
</svg>
